<?xml version="1.0" encoding="utf-8"?>
<!-- Generator: Adobe Illustrator 19.0.0, SVG Export Plug-In . SVG Version: 6.00 Build 0)  -->
<!DOCTYPE svg PUBLIC "-//W3C//DTD SVG 1.1//EN" "http://www.w3.org/Graphics/SVG/1.1/DTD/svg11.dtd">
<svg version="1.1" id="Layer_1" xmlns="http://www.w3.org/2000/svg" xmlns:xlink="http://www.w3.org/1999/xlink" x="0px" y="0px"
	 viewBox="0 0 150 150" style="enable-background:new 0 0 150 150;" xml:space="preserve">
<style type="text/css">
	.st0{fill:#7B7B7B;}
</style>
<g>
	<g>
		<path class="st0" d="M20.5,120.6h11.6c5.8,0,10.5-4.7,10.5-10.5V77.4c0-5.8-4.7-10.5-10.5-10.5H20.5c-5.8,0-10.5,4.7-10.5,10.5
			v32.6C10.1,115.9,14.7,120.6,20.5,120.6z M63.6,120.9h17.1c5.8,0,10.5-4.7,10.5-10.5V18c0-5.8-4.7-10.5-10.5-10.5H63.6
			c-5.8,0-10.5,4.7-10.5,10.5v92.4C53.1,116.2,57.8,120.9,63.6,120.9z M112.1,120.9h16.8c5.8,0,10.5-4.7,10.5-10.5v-60
			c0-5.8-4.7-10.5-10.5-10.5h-16.8c-5.8,0-10.5,4.7-10.5,10.5v60C101.6,116.2,106.3,120.9,112.1,120.9z M5.1,131.6v10.9h139.9v-10.9
			C144.9,131.6,5.1,131.6,5.1,131.6z"/>
	</g>
</g>
</svg>
