<?xml version="1.0" encoding="utf-8"?>
<!-- Generator: Adobe Illustrator 19.1.0, SVG Export Plug-In . SVG Version: 6.00 Build 0)  -->
<svg version="1.1" id="Layer_1" xmlns="http://www.w3.org/2000/svg" xmlns:xlink="http://www.w3.org/1999/xlink" x="0px" y="0px"
	 viewBox="0 0 150 150" style="enable-background:new 0 0 150 150;" xml:space="preserve">
<path d="M117.1,103.9c-5.3,0-10.1,2.1-13.8,5.4L53.3,80.2c0.4-1.6,0.6-3.2,0.6-4.9c0-1.7-0.3-3.3-0.6-4.9l49.5-28.9
	c3.8,3.5,8.8,5.7,14.3,5.7c11.7,0,21.1-9.4,21.1-21.1S128.8,5,117.1,5s-21.1,9.4-21.1,21.1c0,1.7,0.3,3.3,0.6,4.9L47.2,59.9
	c-3.8-3.5-8.8-5.7-14.3-5.7c-11.7,0-21.1,9.4-21.1,21.1s9.4,21.1,21.1,21.1c5.5,0,10.5-2.2,14.3-5.7l50,29.2c-0.4,1.5-0.6,3-0.6,4.6
	c0,11.3,9.2,20.5,20.5,20.5s20.5-9.2,20.5-20.5S128.4,103.9,117.1,103.9z"/>
</svg>
