<?xml version="1.0" encoding="utf-8"?>
<!-- Generator: Adobe Illustrator 19.1.0, SVG Export Plug-In . SVG Version: 6.00 Build 0)  -->
<svg version="1.1" id="Layer_1" xmlns="http://www.w3.org/2000/svg" xmlns:xlink="http://www.w3.org/1999/xlink" x="0px" y="0px"
	 viewBox="0 0 150 150" style="enable-background:new 0 0 150 150;" xml:space="preserve">
<path d="M33.2,65.6c11.2,22,29.2,40,51.2,51.2l17.1-17.1c2.1-2.1,5.2-2.8,7.9-1.9c8.7,2.9,18.1,4.4,27.8,4.4c4.3,0,7.8,3.5,7.8,7.8
	v27.1c0,4.3-3.5,7.8-7.8,7.8C64.2,145,5,85.8,5,12.8C5,8.5,8.5,5,12.8,5H40c4.3,0,7.8,3.5,7.8,7.8c0,9.7,1.6,19,4.4,27.8
	c0.9,2.7,0.2,5.8-1.9,7.9L33.2,65.6z"/>
</svg>
