<?xml version="1.0" encoding="utf-8"?>
<!-- Generator: Adobe Illustrator 19.1.0, SVG Export Plug-In . SVG Version: 6.00 Build 0)  -->
<svg version="1.1" id="Layer_1" xmlns="http://www.w3.org/2000/svg" xmlns:xlink="http://www.w3.org/1999/xlink" x="0px" y="0px"
	 viewBox="0 0 150 150" style="enable-background:new 0 0 150 150;" xml:space="preserve">
<style type="text/css">
	.st0{fill:#3D5A98;}
</style>
<path class="st0" d="M137.3,5H12.7C8.5,5,5,8.5,5,12.7v124.5c0,4.3,3.5,7.7,7.7,7.7H80V91H62V70h18V54.1c0-18.1,10.8-27.9,26.9-27.9
	c7.7,0,14.1,0.6,16.1,0.8v18.9l-10.9,0c-8.8,0-10.1,4.2-10.1,10.3V70h20.5l-2.7,21H102v54h35.3c4.3,0,7.7-3.5,7.7-7.7V12.7
	C145,8.5,141.5,5,137.3,5z"/>
</svg>
