<?xml version="1.0" encoding="utf-8"?>
<!-- Generator: Adobe Illustrator 17.0.0, SVG Export Plug-In . SVG Version: 6.00 Build 0)  -->
<!DOCTYPE svg PUBLIC "-//W3C//DTD SVG 1.1//EN" "http://www.w3.org/Graphics/SVG/1.1/DTD/svg11.dtd">
<svg version="1.1" id="Layer_1" xmlns="http://www.w3.org/2000/svg" xmlns:xlink="http://www.w3.org/1999/xlink" x="0px" y="0px"
	 width="150px" height="150px" viewBox="0 0 150 150" enable-background="new 0 0 150 150" xml:space="preserve">
<path fill-rule="evenodd" clip-rule="evenodd" fill="#7A7A7A" d="M19.142,115.344l15.517,15.518c6.855,6.851,17.97,6.851,24.826,0
	l18.619-18.622c6.855-6.857,6.855-17.97,0-24.827l-9.633,9.589c0.798,2.936-0.473,6.725-2.78,9.033l-12.413,12.413
	c-3.428,3.427-8.985,3.427-12.413,0l-9.31-9.31c-3.428-3.427-3.428-8.983,0-12.416l12.413-12.413c2.43-2.43,5.931-3.651,8.983-2.639
	l9.636-9.775c-6.856-6.853-17.971-6.853-24.827,0L19.142,90.516C12.286,97.374,12.286,108.487,19.142,115.344z M95.171,54.831
	c-2.571-2.572-6.739-2.572-9.309,0L54.829,85.864c-2.57,2.569-2.57,6.74,0,9.309c2.571,2.569,6.739,2.569,9.31,0l31.032-31.036
	C97.742,61.567,97.742,57.4,95.171,54.831z M81.671,52.953c-1.015-3.052,0.21-6.553,2.639-8.984l12.413-12.414
	c3.428-3.426,8.985-3.426,12.413,0l9.31,9.31c3.427,3.431,3.427,8.987,0,12.413l-12.413,12.414
	c-2.307,2.304-6.095,3.578-9.034,2.781l-9.586,9.63c6.855,6.854,17.97,6.854,24.826,0l18.619-18.616
	c6.856-6.857,6.856-17.97,0-24.83l-15.516-15.518c-6.855-6.851-17.97-6.851-24.826,0l-18.62,18.622
	c-6.856,6.859-6.856,17.973,0,24.827L81.671,52.953z"/>
</svg>
