<?xml version="1.0" encoding="utf-8"?>
<!-- Generator: Adobe Illustrator 19.0.0, SVG Export Plug-In . SVG Version: 6.00 Build 0)  -->
<!DOCTYPE svg PUBLIC "-//W3C//DTD SVG 1.1//EN" "http://www.w3.org/Graphics/SVG/1.1/DTD/svg11.dtd">
<svg version="1.1" id="Layer_1" xmlns="http://www.w3.org/2000/svg" xmlns:xlink="http://www.w3.org/1999/xlink" x="0px" y="0px"
	 viewBox="0 0 150 150" style="enable-background:new 0 0 150 150;" xml:space="preserve">
<style type="text/css">
	.st0{fill:#7B7B7B;}
</style>
<g>
	<g>
		<path class="st0" d="M72.9,37.8c-37.6,1-67.6,36.8-67.6,36.8c17.2,33.8,68.4,37.6,68.4,37.6c42.1,0.8,71-38.1,71-38.1
			C118.2,40.2,72.9,37.8,72.9,37.8z M71.5,103.5c-16.3,0-29.4-13.2-29.4-29.4c0-16.3,13.2-29.4,29.4-29.4S101,57.8,101,74.1
			C101,90.3,87.8,103.5,71.5,103.5z M71.9,54.6c-10.9,0-19.7,8.8-19.7,19.7c0,10.9,8.8,19.7,19.7,19.7c10.9,0,19.7-8.8,19.7-19.7
			C91.6,63.4,82.8,54.6,71.9,54.6z"/>
	</g>
</g>
</svg>
