<?xml version="1.0" encoding="utf-8"?>
<!-- Generator: Adobe Illustrator 19.1.0, SVG Export Plug-In . SVG Version: 6.00 Build 0)  -->
<svg version="1.1" id="Layer_1" xmlns="http://www.w3.org/2000/svg" xmlns:xlink="http://www.w3.org/1999/xlink" x="0px" y="0px"
	 viewBox="0 0 150 150" style="enable-background:new 0 0 150 150;" xml:space="preserve">
<style type="text/css">
	.st0{fill:#010002;}
</style>
<g>
	<g>
		<g>
			<path class="st0" d="M118.9,5H13v126.4h105.9V5z M112.6,125c-5.8,0-87.4,0-93.2,0c0-5.9,0-107.8,0-113.7c5.8,0,87.4,0,93.2,0
				C112.6,17.2,112.6,119.2,112.6,125z"/>
			<rect x="30.5" y="25.5" class="st0" width="72.4" height="6.7"/>
			<rect x="30.5" y="46.5" class="st0" width="72.4" height="6.7"/>
			<polygon class="st0" points="123.3,19.3 123.3,25.7 129.3,25.7 129.3,139.3 36.1,139.3 36.1,134.9 29.7,134.9 29.7,145.7 
				135.7,145.7 135.7,19.3 			"/>
			<path class="st0" d="M33.2,96.1c1.3,0,2.4-0.4,3.5-0.9l9.1,7.4c0,0.4-0.2,0.7-0.2,1c0,4.4,3.6,8,8,8s8-3.6,8-8
				c0-1.3-0.4-2.4-0.9-3.5c4.4-6.5,9.9-14.9,13.3-19.9c0.5,0.1,1,0.3,1.5,0.3c1.9,0,3.6-0.8,5-1.9c3,1.7,6.9,4,10.2,6
				c0,0.1-0.1,0.2-0.1,0.3c0,4.4,3.6,8,8,8s8-3.6,8-8s-3.6-8-8-8c-1.9,0-3.7,0.8-5.1,1.9L83.3,73c0-0.1,0.1-0.2,0.1-0.4
				c0-4.4-3.6-7.9-7.9-7.9s-7.9,3.6-7.9,7.9c0,1.5,0.5,2.8,1.2,4c-4.2,6.3-9.6,14.4-13,19.6c-0.7-0.2-1.4-0.4-2.1-0.4
				c-1.6,0-3.1,0.6-4.4,1.5c-2.5-2.1-5.6-4.6-8.4-6.9c0.2-0.7,0.4-1.4,0.4-2.2c0-4.4-3.6-8-8-8c-4.4,0-8,3.6-8,8
				C25.2,92.5,28.8,96.1,33.2,96.1z"/>
		</g>
	</g>
</g>
</svg>
