<?xml version="1.0" standalone="no"?> 
<!DOCTYPE svg PUBLIC "-//W3C//DTD SVG 1.1//EN" "http://www.w3.org/Graphics/SVG/1.1/DTD/svg11.dtd" >
<svg xmlns="http://www.w3.org/2000/svg">
<defs>
  <font id="glyph-font" horiz-adv-x="150">
    <font-face font-family="glyph-font"
      units-per-em="150" ascent="150"
      descent="0" />
    <missing-glyph horiz-adv-x="0" />
    <glyph glyph-name="edit"
      unicode="&#xF115;"
      horiz-adv-x="150" d=" M27 5.1H23.8C24.9 5 26 5 27 5.1zM134.9 138C125.4 147.5 109.8 147.4 100.1 137.6L98.8 136.3L133.3 101.8L134.6 103.1C144.3 112.8 144.4 128.4 134.9 138zM33.4 71.3L8.1 12.6L69.2 38.1L123.1 91.7L88.6 126.2L33.4 71.3zM27.7 28L23.5 33.4L35.1 59.8L40.6 54.6L36.1 40.5L49.8 45L56.5 38.9L27.7 28z" />
    <glyph glyph-name="warning"
      unicode="&#xF101;"
      horiz-adv-x="150" d=" M143.7 21.2L82.7 135.6C81.2 138.5 78.2 140.3 74.9 140.3H74.9C71.7 140.3 68.7 138.5 67.1 135.7L5.8 21.2C4.3 18.5 4.4 15.2 6 12.5C7.6 9.9 10.5 8.2 13.5 8.2H135.8C138.9 8.2 141.8 9.8 143.3 12.5C145.1 15.2 145.2 18.5 143.7 21.2zM74.9 25.8C70 25.8 66.1 29.7 66.1 34.6S70 43.4 74.9 43.4C79.7 43.4 83.7 39.5 83.7 34.6S79.8 25.8 74.9 25.8zM83.7 60.9C83.7 56 79.8 52.1 74.9 52.1C70 52.1 66.1 56 66.1 60.9V96.1C66.1 101 70 104.9 74.9 104.9C79.7 104.9 83.7 101 83.7 96.1V60.9z" />
    <glyph glyph-name="error"
      unicode="&#xF102;"
      horiz-adv-x="150" d=" M74.8 143.7C36.4 143.7 5.3 112.6 5.3 74.2C5.3 35.8 36.4 4.7 74.8 4.7C113.2 4.7 144.3 35.8 144.3 74.2C144.3 112.6 113.2 143.7 74.8 143.7zM101 34.9L74.8 61.1L48.6 34.9L35.5 48L61.7 74.2L35.5 100.4L48.6 113.5L74.8 87.3L101 113.5L114.1 100.4L87.9 74.2L114.1 48L101 34.9z" />
    <glyph glyph-name="success"
      unicode="&#xF103;"
      horiz-adv-x="150" d=" M75 145C36.3 145 5 113.7 5 75S36.3 5 75 5S145 36.3 145 75S113.7 145 75 145zM61.9 31.2L32.9 69L45.8 82.4L61.9 61.9L112.5 103.2L118.8 96.9L61.9 31.2z" />
    <glyph glyph-name="help"
      unicode="&#xF104;"
      horiz-adv-x="150" d=" M74.1 144.9C35.4 144.4 4.5 112.7 5.1 74.1C5.6 35.5 37.4 4.6 76 5.1C114.6 5.6 145.5 37.4 145 76C144.4 114.6 112.7 145.5 74.1 144.9zM73.9 32.4L73.5 32.4C67.6 32.6 63.4 37 63.5 42.8C63.7 48.6 68 52.7 73.7 52.7L74 52.7C80.1 52.5 84.3 48.2 84.1 42.2C84 36.5 79.7 32.4 73.9 32.4zM98.9 82.1C97.5 80.1 94.4 77.6 90.5 74.6L86.2 71.7C83.9 69.9 82.4 68.2 81.9 66.5C81.5 65.2 81.3 64.8 81.2 62.1L81.2 61.4H65L65 62.8C65.2 68.5 65.3 71.8 67.7 74.6C71.4 78.9 79.5 84.2 79.9 84.4C81.1 85.3 82 86.3 82.8 87.3C84.5 89.7 85.3 91.5 85.3 93.3C85.3 95.8 84.5 98.2 83.1 100.3C81.7 102.3 79 103.3 75 103.3C71.1 103.3 68.4 102.1 66.9 99.5C65.3 96.9 64.4 94.2 64.4 91.4V90.7H47.5L47.5 91.4C47.9 101.7 51.6 109.1 58.4 113.4C62.7 116.2 68 117.5 74.2 117.5C82.3 117.5 89.2 115.5 94.6 111.6C100.1 107.7 102.9 101.7 102.9 94C102.9 89.8 101.6 85.8 98.9 82.1z" />
    <glyph glyph-name="info"
      unicode="&#xF105;"
      horiz-adv-x="150" d=" M74.8 144.2C36.1 144.2 4.8 112.8 4.8 74.2S36.2 4.2 74.8 4.2S144.8 35.6 144.8 74.2S113.5 144.2 74.8 144.2zM89.4 35.7C85.8 34.3 82.9 33.2 80.8 32.5C78.7 31.8 76.2 31.4 73.3 31.4C68.9 31.4 65.5 32.5 63.1 34.6C60.7 36.7 59.5 39.4 59.5 42.7C59.5 44 59.6 45.3 59.8 46.6C60 47.9 60.3 49.4 60.7 51.1L65.1 67C65.5 68.5 65.8 70 66.1 71.3C66.4 72.7 66.5 73.9 66.5 75.1C66.5 77.1 66.1 78.6 65.2 79.4C64.4 80.2 62.8 80.6 60.4 80.6C59.2 80.6 58 80.4 56.8 80.1C55.6 79.7 54.5 79.4 53.7 79.1L54.9 84C57.9 85.2 60.7 86.2 63.4 87.1C66.1 88 68.6 88.4 71 88.4C75.3 88.4 78.7 87.3 81 85.3C83.3 83.2 84.5 80.5 84.5 77.1C84.5 76.4 84.4 75.2 84.3 73.4C84.1 71.7 83.8 70.1 83.4 68.6L79 52.5C78.6 51.2 78.3 49.8 78 48.1C77.7 46.5 77.6 45.2 77.6 44.4C77.6 42.3 78.1 40.8 79 40.1C79.9 39.3 81.6 38.9 83.9 38.9C85 38.9 86.2 39.1 87.6 39.5C89 39.9 90 40.2 90.6 40.5L89.4 35.7zM88.6 100.2C86.5 98.3 84 97.3 81 97.3C78.1 97.3 75.5 98.3 73.4 100.2C71.3 102.1 70.2 104.5 70.2 107.3C70.2 110.1 71.3 112.4 73.4 114.4C75.5 116.4 78 117.3 81 117.3C83.9 117.3 86.5 116.3 88.6 114.4C90.7 112.4 91.7 110.1 91.7 107.3C91.7 104.5 90.7 102.1 88.6 100.2z" />
    <glyph glyph-name="trash"
      unicode="&#xF106;"
      horiz-adv-x="150" d=" M27.8 20C27.8 11.4 34.8 4.4 43.4 4.4H105.7C114.3 4.4 121.3 11.4 121.3 20V113.4H27.8V20zM129 136.8H101.7L94 144.6H55L47.2 136.8H20V121.2H129V136.8z" />
    <glyph glyph-name="calendar"
      unicode="&#xF107;"
      horiz-adv-x="150" d=" M104.6 140.8H92.7V115.6H104.6V140.8zM57.6 140.8H45.7V115.6H57.6V140.8zM116.1 129.4H109.5V110.7H87.8V129.4H62.5V110.7H40.8V129.4H34C24.7 129.4 16.3 121.8 16.3 112.5V28.1C16.3 18.8 24.7 11.1 34 11.1H116C125.3 11.1 133.7 18.8 133.7 28.1V112.5C133.7 121.9 125.4 129.4 116.1 129.4zM58.2 89.2V26.8H44.4V82.3H36.3V89.2V96.1H58.3V89.2zM113.7 61.3V47.4V40.7V26.8H99.9H72.1V33.7V40.6V47.3V61.3V82.3V89.2V96.1H113.7M86 82.3V61.3V47.4V40.7H99.9V47.4V61.3V82.3" />
    <glyph glyph-name="profile"
      unicode="&#xF108;"
      horiz-adv-x="150" d=" M126.8 21.4C126.3 27.2 125.8 33.1 125.3 38.9C124.9 43.7 122.6 47.3 118.7 50C114.1 53.2 108.9 54.6 103.5 55.6C99.1 56.4 94.6 56.7 90.9 59.7L87.8 66.6L87.4 66.2C87.6 68.2 87.6 70.2 87.8 72.2C87.9 72.8 88.1 73.6 88.5 74C92.8 78.3 95.6 83.4 96.7 89.4C96.8 89.7 97.1 90.2 97.4 90.3C102.1 91.8 103.2 100.7 98.8 104.3C98.3 104.7 98 105.4 97.9 106C97.6 111.1 97.6 116.2 97.2 121.3C97 124.2 96.2 127.1 93 127.9C90.7 128.5 88.3 128.4 85.9 128.7C85.4 128.8 84.8 128.9 84.5 129.3C82.8 131.4 80.7 133 78 133.4C72.7 134.1 67.3 134.2 62.1 132.6C55.7 130.6 51.9 125.9 51.7 119.7C51.5 115.1 51.3 110.6 51.1 106C51.1 105.6 50.9 105.1 50.6 105C47.4 103.5 46.4 98.7 47.3 95.2C47.8 93.2 48.7 91.4 50.7 90.7C51.8 90.3 52 89.7 52.2 88.7C53.1 82.7 56.2 78.2 61 74.7C61.5 74.3 61.9 73.6 62 73C62 70.7 61.9 68.4 61.9 66.1C61.9 65.9 61.9 65.7 61.9 65.5L61.5 65.9L59.3 59.9C56.7 58 53.6 56.9 50.3 56.3C47.7 55.8 45.2 55.4 42.6 54.9C37.8 53.9 33.2 52.4 29.2 49.4C26.3 47.2 24.2 44.7 24 40.9C23.8 36.9 23.2 32.8 23 28.8C22.8 26.1 23 23.3 23 20.5C23.6 20.5 24.7 20.5 24.7 20.5S42.5 16.3 75.5 16.3S126.6 20.6 126.6 20.6S126.8 21.1 126.8 21.4z" />
    <glyph glyph-name="location"
      unicode="&#xF109;"
      horiz-adv-x="150" d=" M75 136C53.397 136 35.885 118.493 35.885 96.888C35.885 75.282 75 14 75 14S114.115 75.282 114.115 96.888C114.115 118.493 96.601 136 75 136zM75 85.003C68.437 85.003 63.115 90.322 63.115 96.888C63.115 103.45 68.437 108.772 75 108.772S86.884 103.45 86.884 96.888C86.884 90.323 81.563 85.003 75 85.003z" />
    <glyph glyph-name="download"
      unicode="&#xF10A;"
      horiz-adv-x="150" d=" M129 95.7H98.2V142.1H51.8V95.8H21L75 41.8L129 95.7zM21 26.3V10.9H129V26.3H21z" />
    <glyph glyph-name="email"
      unicode="&#xF10B;"
      horiz-adv-x="150" d=" M131.2 131.2H18.8C11.1 131.2 4.8 124.9 4.8 117.1L4.7 32.8C4.7 25.1 11 18.7 18.8 18.7H131.2C138.9 18.7 145.3 25 145.3 32.8V117.2C145.3 124.9 138.9 131.2 131.2 131.2zM131.2 103.1L75 68L18.8 103.1V117.2L75 82L131.2 117.1V103.1z" />
    <glyph glyph-name="facebook"
      unicode="&#xF10C;"
      horiz-adv-x="150" d=" M137.3 145H12.7C8.5 145 5 141.5 5 137.3V12.8C5 8.5 8.5 5.1 12.7 5.1H80V59H62V80H80V95.9C80 114 90.8 123.8 106.9 123.8C114.6 123.8 121 123.2 123 123V104.1L112.1 104.1C103.3 104.1 102 99.9 102 93.8V80H122.5L119.8 59H102V5H137.3C141.6 5 145 8.5 145 12.7V137.3C145 141.5 141.5 145 137.3 145z" />
    <glyph glyph-name="phone"
      unicode="&#xF10D;"
      horiz-adv-x="150" d=" M33.2 84.4C44.4 62.4 62.4 44.4 84.4 33.2L101.5 50.3C103.6 52.4 106.7 53.1 109.4 52.2C118.1 49.3 127.5 47.8 137.2 47.8C141.5 47.8 145 44.3 145 40V12.9C145 8.6 141.5 5.1 137.2 5.1C64.2 5 5 64.2 5 137.2C5 141.5 8.5 145 12.8 145H40C44.3 145 47.8 141.5 47.8 137.2C47.8 127.5 49.4 118.2 52.2 109.4C53.1 106.7 52.4 103.6 50.3 101.5L33.2 84.4z" />
    <glyph glyph-name="social-share"
      unicode="&#xF10E;"
      horiz-adv-x="150" d=" M117.1 46.1C111.8 46.1 107 44 103.3 40.7L53.3 69.8C53.7 71.4 53.9 73 53.9 74.7C53.9 76.4 53.6 78 53.3 79.6L102.8 108.5C106.6 105 111.6 102.8 117.1 102.8C128.8 102.8 138.2 112.2 138.2 123.9S128.8 145 117.1 145S96 135.6 96 123.9C96 122.2 96.3 120.6 96.6 119L47.2 90.1C43.4 93.6 38.4 95.8 32.9 95.8C21.2 95.8 11.8 86.4 11.8 74.7S21.2 53.6 32.9 53.6C38.4 53.6 43.4 55.8 47.2 59.3L97.2 30.1C96.8 28.6 96.6 27.1 96.6 25.5C96.6 14.2 105.8 5 117.1 5S137.6 14.2 137.6 25.5S128.4 46.1 117.1 46.1z" />
    <glyph glyph-name="flask"
      unicode="&#xF10F;"
      horiz-adv-x="150" d=" M131.1 29.3L94.3 98.3V133.3H97.9C99.5 133.3 100.8 134.6 100.8 136.2V142.1C100.8 143.7 99.5 145 97.9 145H94.3H56.8H53.5C51.9 145 50.6 143.7 50.6 142.1V136.2C50.6 134.6 51.9 133.3 53.5 133.3H56.8V98.3L22.9 29.6C14.2 16 20.3 5 36.4 5H118.1C134.2 4.9 140 15.8 131.1 29.3zM67.2 93.1L68.4 95.5V98.2V133.2H82.5V98.2V95.3L83.9 92.7L99.7 63.1H52.5L67.2 93.1z" />
    <glyph glyph-name="link"
      unicode="&#xF110;"
      horiz-adv-x="150" d=" M19.142 34.656L34.659 19.138C41.514 12.287 52.629 12.287 59.485 19.138L78.104 37.76C84.959 44.617 84.959 55.73 78.104 62.587L68.471 52.998C69.269 50.062 67.998 46.273 65.691 43.965L53.278 31.552C49.85 28.125 44.293 28.125 40.865 31.552L31.555 40.862C28.127 44.289 28.127 49.845 31.555 53.278L43.968 65.691C46.398 68.121 49.899 69.342 52.951 68.33L62.587 78.105C55.731 84.958 44.616 84.958 37.76 78.105L19.142 59.484C12.286 52.626 12.286 41.513 19.142 34.656zM95.171 95.169C92.6 97.741 88.432 97.741 85.862 95.169L54.829 64.136C52.259 61.567 52.259 57.396 54.829 54.827C57.4 52.258 61.568 52.258 64.139 54.827L95.171 85.863C97.742 88.433 97.742 92.6 95.171 95.169zM81.671 97.047C80.656 100.099 81.881 103.6 84.31 106.031L96.723 118.445C100.151 121.871 105.708 121.871 109.136 118.445L118.446 109.135C121.873 105.704 121.873 100.148 118.446 96.722L106.033 84.308C103.726 82.004 99.938 80.73 96.999 81.527L87.413 71.897C94.268 65.043 105.383 65.043 112.239 71.897L130.858 90.513C137.714 97.37 137.714 108.483 130.858 115.343L115.342 130.861C108.487 137.712 97.372 137.712 90.516 130.861L71.896 112.239C65.04 105.38 65.04 94.266 71.896 87.412L81.671 97.047z" />
    <glyph glyph-name="video-library"
      unicode="&#xF111;"
      horiz-adv-x="150" d=" M19 117H5V19C5 11.3 11.3 5 19 5H117V19H19V117zM131 145.1H47C39.3 145.1 33 138.8 33 131.1V47C33 39.3 39.3 33 47 33H131C138.7 33 145 39.3 145 47V131C145.1 138.8 138.8 145.1 131 145.1zM75 57.5V120.5L117 89L75 57.5z" />
    <glyph glyph-name="reporting"
      unicode="&#xF112;"
      horiz-adv-x="150" d=" M118.9 145H13V18.6H118.9V145zM112.6 25C106.8 25 25.2 25 19.4 25C19.4 30.9 19.4 132.8 19.4 138.7C25.2 138.7 106.8 138.7 112.6 138.7C112.6 132.8 112.6 30.8 112.6 25z M30.5 124.5H102.9V117.8H30.5V124.5z M30.5 103.5H102.9V96.8H30.5V103.5z M123.3 130.7L123.3 124.3L129.3 124.3L129.3 10.7L36.1 10.7L36.1 15.1L29.7 15.1L29.7 4.3L135.7 4.3L135.7 130.7z M33.2 53.9C34.5 53.9 35.6 54.3 36.7 54.8L45.8 47.4C45.8 47 45.6 46.7 45.6 46.4C45.6 42 49.2 38.4 53.6 38.4S61.6 42 61.6 46.4C61.6 47.7 61.2 48.8 60.7 49.9C65.1 56.4 70.6 64.8 74 69.8C74.5 69.7 75 69.5 75.5 69.5C77.4 69.5 79.1 70.3 80.5 71.4C83.5 69.7 87.4 67.4 90.7 65.4C90.7 65.3 90.6 65.2 90.6 65.1C90.6 60.7 94.2 57.1 98.6 57.1S106.6 60.7 106.6 65.1S103 73.1 98.6 73.1C96.7 73.1 94.9 72.3 93.5 71.2L83.3 77C83.3 77.1 83.4 77.2 83.4 77.4C83.4 81.8 79.8 85.3 75.5 85.3S67.6 81.7 67.6 77.4C67.6 75.9 68.1 74.6 68.8 73.4C64.6 67.1 59.2 59 55.8 53.8C55.1 54 54.4 54.2 53.7 54.2C52.1 54.2 50.6 53.6 49.3 52.7C46.8 54.8 43.7 57.3 40.9 59.6C41.1 60.3 41.3 61 41.3 61.8C41.3 66.2 37.7 69.8 33.3 69.8C28.9 69.8 25.3 66.2 25.3 61.8C25.2 57.5 28.8 53.9 33.2 53.9z" />
    <glyph glyph-name="delete"
      unicode="&#xF113;"
      horiz-adv-x="150" d=" M141 115.6L99.9 74.5L140.3 34.1L115.8 9.6L75.4 50L33.4 8L8 33.4L50 75.4L9.5 114.8L34 140.3L74.4 99.9L115.6 141L141 115.6z" />
    <glyph glyph-name="upload"
      unicode="&#xF114;"
      horiz-adv-x="150" d=" M75 125.2L21.7 59.6H54.4V8.1H90.8V59.6H128.2L75 125.2zM127 147.6H23.5V132.1H127V147.6z" />
  </font>
</defs>
</svg>
